<svg width="189" height="48" viewBox="0 0 189 48" fill="none" xmlns="http://www.w3.org/2000/svg">
<path d="M4.79881 21.8304C5.25001 17.8224 6.94441 14.1936 9.47401 11.3184V23.9376C9.47401 23.9568 9.47401 23.9808 9.47401 24C9.47401 27.9744 11.0868 31.5744 13.6932 34.1808C16.2996 36.7872 19.8996 38.4 23.874 38.4C27.8484 38.4 31.4484 36.7872 34.0548 34.1808C36.6612 31.5744 38.274 27.9744 38.274 24C38.274 20.0256 36.6612 16.4256 34.0548 13.8192C31.4484 11.2128 27.8484 9.6 23.874 9.6C22.8708 9.6 21.8916 9.7008 20.946 9.8976C19.8468 10.128 19.074 11.1216 19.074 12.2448C19.074 13.7664 20.466 14.8992 21.954 14.592C22.6644 14.448 23.3988 14.3808 24.1572 14.4048C29.106 14.5488 33.21 18.5568 33.4596 23.5008C33.738 29.0208 29.3316 33.6 23.874 33.6C18.5844 33.6 14.274 29.2944 14.274 24V6.0672C14.274 6.0576 14.274 6.0528 14.274 6.0432C14.274 4.1376 12.1476 2.9664 10.5636 4.0224C4.80361 7.8672 0.800409 14.136 0.0132086 21.3744C-0.135591 22.7808 0.992409 24 2.40841 24C3.64681 24 4.65961 23.0592 4.79881 21.8304Z" fill="#FF3140"/>
<path d="M44.2356 28.8C43.2324 28.8 42.3204 29.4144 41.9844 30.36C39.354 37.8288 32.2308 43.2 23.8692 43.2C15.5172 43.2 8.38921 37.8336 5.76361 30.3648C5.42761 29.4192 4.51561 28.8 3.51241 28.8C1.87081 28.8 0.685214 30.4176 1.23241 31.968C4.51561 41.304 13.4148 48 23.8692 48C34.3332 48 43.2276 41.304 46.5108 31.9632C47.058 30.4176 45.8772 28.8 44.2356 28.8Z" fill="#FF3140"/>
<path d="M47.7204 21.3168C46.3908 9.3216 36.2196 0 23.8692 0C22.962 0 22.0692 0.048 21.186 0.1488C19.9764 0.2832 19.0692 1.32 19.0692 2.5344C19.0692 3.96 20.3076 5.0784 21.7236 4.92C22.4292 4.8432 23.1444 4.8 23.8692 4.8C33.7284 4.8 41.874 12.264 42.9492 21.84C43.0884 23.064 44.1012 24 45.3348 24C46.7748 24 47.8836 22.7472 47.7204 21.3168Z" fill="#FF3140"/>
<path d="M23.874 28.8C26.5249 28.8 28.674 26.651 28.674 24C28.674 21.349 26.5249 19.2 23.874 19.2C21.223 19.2 19.074 21.349 19.074 24C19.074 26.651 21.223 28.8 23.874 28.8Z" fill="#092938"/>
<path d="M164.884 28.6368C164.884 29.8992 164.6 31.0128 164.039 31.9728C163.477 32.9328 162.724 33.6864 161.778 34.224C160.832 34.7616 159.772 35.0304 158.605 35.0304C157.434 35.0304 156.378 34.7616 155.432 34.224C154.487 33.6864 153.733 32.9376 153.172 31.9728C152.61 31.0128 152.327 29.8992 152.327 28.6368C152.327 27.3744 152.605 26.2656 153.172 25.3008C153.733 24.3408 154.487 23.5872 155.432 23.04C156.378 22.4928 157.434 22.2192 158.605 22.2192C159.776 22.2192 160.832 22.4928 161.778 23.04C162.724 23.5872 163.477 24.3408 164.039 25.3008C164.6 26.2656 164.884 27.3744 164.884 28.6368ZM162.114 28.6368C162.114 27.8544 161.956 27.1728 161.639 26.5968C161.322 26.0208 160.9 25.5696 160.367 25.248C159.834 24.9264 159.248 24.7632 158.6 24.7632C157.952 24.7632 157.367 24.9264 156.834 25.248C156.301 25.5696 155.879 26.0208 155.567 26.5968C155.25 27.1728 155.092 27.8544 155.092 28.6368C155.092 29.4048 155.25 30.0816 155.567 30.6576C155.884 31.2336 156.306 31.6848 156.834 32.0064C157.367 32.328 157.952 32.4912 158.6 32.4912C159.248 32.4912 159.834 32.328 160.367 32.0064C160.9 31.6848 161.322 31.2336 161.639 30.6576C161.956 30.0816 162.114 29.4096 162.114 28.6368Z" fill="#FF3140"/>
<path d="M70.938 20.8464C70.2372 20.0832 69.4068 19.488 68.4468 19.056C67.4868 18.624 66.4356 18.408 65.298 18.408C64.1604 18.408 63.114 18.624 62.1588 19.056C61.2036 19.488 60.378 20.0832 59.6772 20.8464C58.9764 21.6096 58.434 22.488 58.05 23.4912C57.666 24.4896 57.474 25.5696 57.474 26.7216C57.474 27.8736 57.666 28.9536 58.05 29.952C58.434 30.9504 58.9764 31.8336 59.6772 32.5968C60.378 33.36 61.2036 33.9552 62.1588 34.3872C63.114 34.8192 64.1604 35.0352 65.298 35.0352C66.4356 35.0352 67.4868 34.8192 68.4468 34.3872C69.4068 33.9552 70.2372 33.36 70.938 32.5968C71.6388 31.8336 72.1812 30.9552 72.5652 29.952C72.9492 28.9536 73.1412 27.8736 73.1412 26.7216C73.1412 25.5696 72.9492 24.4896 72.5652 23.4912C72.1812 22.4928 71.6388 21.6096 70.938 20.8464ZM69.5172 29.5248C69.1044 30.3648 68.5332 31.0272 67.8084 31.5216C67.0836 32.016 66.2484 32.2608 65.2932 32.2608C64.338 32.2608 63.498 32.016 62.778 31.5216C62.0532 31.0272 61.4868 30.3648 61.0836 29.5248C60.6756 28.6848 60.474 27.7536 60.474 26.7216C60.474 25.6752 60.6756 24.7344 61.0836 23.904C61.4916 23.0736 62.058 22.4112 62.778 21.9168C63.5028 21.4224 64.338 21.1776 65.2932 21.1776C66.2484 21.1776 67.0836 21.4224 67.8084 21.9168C68.5332 22.4112 69.0996 23.0736 69.5172 23.9136C69.9348 24.7536 70.1412 25.6848 70.1412 26.7168C70.1412 27.7536 69.9348 28.6896 69.5172 29.5248Z" fill="#092938"/>
<path d="M86.2644 26.2272C86.0052 26.0784 85.7412 25.9536 85.4724 25.8432C86.082 25.5504 86.5524 25.1568 86.8788 24.6576C87.234 24.1104 87.4116 23.4768 87.4116 22.752C87.4116 21.3984 87.0516 20.376 86.3268 19.6848C85.602 18.9936 84.5028 18.648 83.0244 18.648H77.2068C76.8084 18.648 76.4724 18.7824 76.2036 19.0512C75.9348 19.32 75.8004 19.656 75.8004 20.0544V33.3936C75.8004 33.792 75.9348 34.128 76.2036 34.3968C76.4724 34.6656 76.8084 34.8 77.2068 34.8H82.9524C83.5236 34.8 84.114 34.7328 84.7284 34.6032C85.3428 34.4736 85.9188 34.2288 86.4612 33.8784C86.9988 33.5232 87.4356 33.024 87.7668 32.376C88.098 31.728 88.2612 30.8976 88.2612 29.8848C88.2612 28.9632 88.074 28.2048 87.6948 27.6096C87.3204 27.0192 86.8404 26.5584 86.2644 26.2272ZM83.9076 21.816C84.2388 22.1136 84.402 22.5984 84.402 23.2608C84.402 23.8128 84.2244 24.24 83.8692 24.528C83.514 24.8208 83.1156 24.9648 82.6692 24.9648H78.7908V21.3648H82.5972C83.1444 21.3696 83.5812 21.5184 83.9076 21.816ZM84.6372 31.5792C84.2196 31.9584 83.658 32.1456 82.9524 32.1456H78.7956V27.6912H82.7892C83.1108 27.6912 83.466 27.7296 83.85 27.8064C84.234 27.8832 84.5652 28.0752 84.8436 28.3824C85.122 28.6896 85.2612 29.1888 85.2612 29.8848C85.2612 30.6384 85.0548 31.2048 84.6372 31.5792Z" fill="#092938"/>
<path d="M107.149 18.6432C106.765 18.6432 106.458 18.768 106.228 19.0128C105.997 19.2576 105.882 19.5648 105.882 19.9344V29.8656L97.4821 19.1472C97.3765 18.9792 97.2037 18.8496 96.9733 18.768C96.7429 18.6816 96.5173 18.6432 96.3061 18.6432C95.9077 18.6432 95.5717 18.7776 95.3029 19.0464C95.0341 19.3152 94.8997 19.6512 94.8997 20.0496V33.504C94.8997 33.8736 95.0149 34.1808 95.2453 34.4256C95.4757 34.6704 95.7781 34.7952 96.1477 34.7952C96.5317 34.7952 96.8437 34.6704 97.0837 34.4256C97.3237 34.1808 97.4437 33.8736 97.4437 33.504V23.6544L105.916 34.4112C106.021 34.536 106.18 34.632 106.391 34.6992C106.597 34.7664 106.804 34.8048 107 34.8048C107.399 34.8048 107.735 34.6704 108.004 34.4016C108.272 34.1328 108.407 33.7968 108.407 33.3984V19.9344C108.407 19.5648 108.292 19.2576 108.061 19.0128C107.816 18.768 107.519 18.6432 107.149 18.6432Z" fill="#092938"/>
<path d="M120.637 24.0336C120.1 23.472 119.48 23.0304 118.78 22.7088C118.079 22.3872 117.335 22.224 116.552 22.224C115.535 22.224 114.575 22.4832 113.668 23.0064C112.76 23.5296 112.026 24.2784 111.464 25.2576C110.903 26.2368 110.62 27.4176 110.62 28.8C110.62 29.9856 110.879 31.0464 111.392 31.9872C111.906 32.928 112.645 33.6672 113.61 34.2144C114.57 34.7616 115.708 35.0352 117.013 35.0352C117.781 35.0352 118.53 34.9104 119.25 34.656C119.975 34.4016 120.536 34.104 120.935 33.768C121.367 33.432 121.583 33.0528 121.583 32.6352C121.583 32.328 121.472 32.0592 121.247 31.8288C121.021 31.5984 120.743 31.4832 120.402 31.4832C120.157 31.4832 119.893 31.5504 119.62 31.6896C119.452 31.7808 119.26 31.896 119.053 32.0256C118.847 32.1552 118.573 32.2656 118.232 32.3616C117.892 32.4528 117.44 32.5008 116.869 32.5008C116.255 32.5008 115.674 32.352 115.127 32.0496C114.58 31.752 114.133 31.3104 113.788 30.7344C113.586 30.3984 113.452 30.0144 113.365 29.592H120.978C121.348 29.592 121.669 29.4768 121.948 29.2464C122.226 29.016 122.37 28.7136 122.384 28.344C122.384 27.5136 122.226 26.7264 121.909 25.9872C121.602 25.2432 121.175 24.5952 120.637 24.0336ZM114.22 25.5696C114.512 25.2768 114.858 25.0704 115.256 24.9456C115.655 24.8208 116.087 24.7584 116.548 24.7584C117.023 24.7584 117.474 24.864 117.896 25.0704C118.319 25.2768 118.674 25.56 118.957 25.9104C119.24 26.2656 119.399 26.664 119.432 27.1104V27.2736H113.389C113.428 27.0864 113.471 26.904 113.524 26.7408C113.696 26.2512 113.927 25.8624 114.22 25.5696Z" fill="#092938"/>
<path d="M130.424 25.224C130.794 25.224 131.101 25.104 131.346 24.864C131.591 24.624 131.716 24.3312 131.716 23.976C131.716 23.6064 131.591 23.2992 131.346 23.0544C131.101 22.8096 130.794 22.6848 130.424 22.6848H128.788V21.2064C128.788 20.808 128.663 20.472 128.408 20.2032C128.154 19.9344 127.828 19.8 127.429 19.8C127.031 19.8 126.695 19.9344 126.426 20.2032C126.157 20.472 126.023 20.808 126.023 21.2064V22.6848H124.962C124.592 22.6848 124.285 22.8048 124.04 23.0448C123.796 23.2848 123.671 23.5776 123.671 23.9328C123.671 24.3024 123.796 24.6096 124.04 24.8544C124.285 25.0992 124.592 25.224 124.962 25.224H126.023V31.5936C126.023 32.3472 126.138 32.9424 126.368 33.3696C126.599 33.8016 126.887 34.1184 127.232 34.3296C127.578 34.536 127.948 34.6656 128.341 34.7232C128.735 34.776 129.09 34.8048 129.416 34.8048C129.954 34.8048 130.458 34.6656 130.928 34.3872C131.399 34.1088 131.634 33.7584 131.634 33.3264C131.634 32.9712 131.548 32.6976 131.37 32.496C131.192 32.2944 130.996 32.1984 130.78 32.1984C130.578 32.1984 130.4 32.232 130.247 32.304C130.093 32.3712 129.925 32.4096 129.738 32.4096C129.57 32.4096 129.412 32.3808 129.263 32.3184C129.119 32.256 128.999 32.1552 128.917 32.016C128.831 31.8768 128.792 31.6992 128.792 31.4832V25.224H130.424Z" fill="#092938"/>
<path d="M149.394 22.4544C148.688 22.4544 148.242 22.7472 148.055 23.3328L145.583 29.9712L143.812 25.152C143.706 24.8736 143.562 24.6624 143.384 24.5184C143.207 24.3744 142.948 24.2976 142.612 24.2976C142.012 24.2976 141.589 24.5808 141.344 25.152L139.525 30.0912L137.029 23.328C136.938 23.0208 136.775 22.7952 136.544 22.656C136.314 22.5168 136.05 22.4496 135.757 22.4496C135.325 22.4496 134.989 22.5984 134.74 22.8864C134.495 23.1792 134.37 23.5104 134.37 23.88C134.37 24.0624 134.399 24.24 134.461 24.4128L137.994 33.9216C138.1 34.2288 138.296 34.464 138.584 34.6272C138.868 34.7904 139.156 34.848 139.448 34.8C139.972 34.7712 140.365 34.4784 140.624 33.9216L142.482 28.2432L144.455 33.9216C144.714 34.4736 145.108 34.7664 145.631 34.8C145.938 34.848 146.231 34.7904 146.509 34.6272C146.788 34.464 146.98 34.2336 147.085 33.9216L150.618 24.4128C150.647 24.336 150.671 24.2544 150.685 24.168C150.7 24.0816 150.709 23.9856 150.709 23.88C150.709 23.4624 150.58 23.1216 150.316 22.8528C150.056 22.5888 149.749 22.4544 149.394 22.4544Z" fill="#092938"/>
<path d="M174.887 22.6128C174.57 22.3536 174.181 22.2192 173.72 22.2192C173.336 22.2192 172.952 22.2672 172.568 22.3584C172.184 22.4496 171.82 22.5936 171.484 22.7856C171.143 22.9776 170.84 23.2176 170.572 23.5008C170.375 23.7072 170.216 23.9424 170.077 24.192V23.8608C170.077 23.4624 169.948 23.1264 169.684 22.8576C169.424 22.5888 169.093 22.4544 168.69 22.4544C168.292 22.4544 167.96 22.5888 167.696 22.8576C167.432 23.1264 167.303 23.4624 167.303 23.8608V33.3936C167.303 33.792 167.432 34.128 167.696 34.3968C167.956 34.6656 168.287 34.8 168.69 34.8C169.088 34.8 169.42 34.6656 169.684 34.3968C169.948 34.128 170.077 33.792 170.077 33.3936V27.9216C170.077 27.3696 170.149 26.8848 170.298 26.4768C170.442 26.0688 170.634 25.728 170.874 25.4496C171.114 25.1712 171.373 24.9696 171.661 24.84C171.944 24.7104 172.228 24.6432 172.506 24.6432C172.813 24.6432 173.087 24.696 173.327 24.8064C173.567 24.912 173.831 24.9696 174.124 24.9696C174.431 24.9696 174.714 24.8592 174.978 24.6336C175.237 24.4128 175.372 24.0432 175.372 23.5392C175.362 23.184 175.204 22.8768 174.887 22.6128Z" fill="#092938"/>
<path d="M187.592 32.376L183.56 27.984L187.04 24.7824C187.41 24.4608 187.592 24.1152 187.592 23.7456C187.592 23.4672 187.463 23.184 187.199 22.8912C186.935 22.5984 186.628 22.4544 186.277 22.4544C185.893 22.4544 185.552 22.6032 185.26 22.8912L180.32 27.6576V19.128C180.32 18.7296 180.191 18.3936 179.927 18.1248C179.663 17.856 179.336 17.7216 178.933 17.7216C178.535 17.7216 178.204 17.856 177.94 18.1248C177.68 18.3936 177.546 18.7296 177.546 19.128V33.3936C177.546 33.792 177.676 34.128 177.94 34.3968C178.204 34.6656 178.53 34.8 178.933 34.8C179.332 34.8 179.663 34.6656 179.927 34.3968C180.186 34.128 180.32 33.792 180.32 33.3936V30.9648L181.458 29.9184L185.61 34.3152C185.888 34.6224 186.224 34.776 186.628 34.776C186.935 34.776 187.247 34.6464 187.564 34.3968C187.88 34.1424 188.039 33.816 188.039 33.4176C188.034 33.0336 187.885 32.6832 187.592 32.376Z" fill="#092938"/>
</svg>
