<svg width="44" height="44" viewBox="0 0 44 44" fill="none" xmlns="http://www.w3.org/2000/svg">
<g id="Group">
<g id="Group_2">
<g id="Group_3">
<path id="Vector" d="M4.4232 20.0113C4.83909 16.3373 6.40086 13.0109 8.73247 10.3753V21.9429C8.73247 21.9605 8.73247 21.9825 8.73247 22.0001C8.73247 25.6433 10.219 28.9433 12.6214 31.3325C15.0238 33.7217 18.342 35.2001 22.0054 35.2001C25.6687 35.2001 28.9869 33.7217 31.3893 31.3325C33.7917 28.9433 35.2783 25.6433 35.2783 22.0001C35.2783 18.3569 33.7917 15.0569 31.3893 12.6677C28.9869 10.2785 25.6687 8.80012 22.0054 8.80012C21.0807 8.80012 20.1781 8.89252 19.3065 9.07292C18.2934 9.28412 17.5811 10.1949 17.5811 11.2245C17.5811 12.6193 18.8641 13.6577 20.2356 13.3761C20.8904 13.2441 21.5674 13.1825 22.2664 13.2045C26.8279 13.3365 30.6106 17.0105 30.8407 21.5425C31.0973 26.6025 27.0358 30.8001 22.0054 30.8001C17.1298 30.8001 13.1568 26.8533 13.1568 22.0001V5.56172C13.1568 5.55292 13.1568 5.54852 13.1568 5.53972C13.1568 3.79292 11.1968 2.71932 9.73679 3.68732C4.42763 7.21172 0.73776 12.9581 0.0121747 19.5933C-0.124979 20.8825 0.914732 22.0001 2.2199 22.0001C3.36137 22.0001 4.2949 21.1377 4.4232 20.0113Z" fill="#FF3140"/>
<path id="Vector_2" d="M40.7733 26.3999C39.8486 26.3999 39.008 26.9631 38.6983 27.8299C36.2738 34.6763 29.7081 39.5999 22.001 39.5999C14.3027 39.5999 7.73265 34.6807 5.31256 27.8343C5.00286 26.9675 4.16224 26.3999 3.23756 26.3999C1.72445 26.3999 0.631652 27.8827 1.13602 29.3039C4.16224 37.8619 12.3649 43.9999 22.001 43.9999C31.646 43.9999 39.8442 37.8619 42.8704 29.2995C43.3748 27.8827 42.2864 26.3999 40.7733 26.3999Z" fill="#FF3140"/>
<path id="Vector_3" d="M43.9853 19.5404C42.7598 8.5448 33.3847 0 22.001 0C21.1648 0 20.3418 0.044 19.5278 0.1364C18.4129 0.2596 17.5767 1.21 17.5767 2.3232C17.5767 3.63 18.7181 4.6552 20.0233 4.51C20.6737 4.4396 21.3329 4.4 22.001 4.4C31.0885 4.4 38.5965 11.242 39.5876 20.02C39.7159 21.142 40.6494 22 41.7864 22C43.1137 22 44.1357 20.8516 43.9853 19.5404Z" fill="#FF3140"/>
</g>
<path id="Vector_4" d="M22.0054 26.4001C24.4488 26.4001 26.4297 24.4302 26.4297 22.0001C26.4297 19.57 24.4488 17.6001 22.0054 17.6001C19.5619 17.6001 17.5811 19.57 17.5811 22.0001C17.5811 24.4302 19.5619 26.4001 22.0054 26.4001Z" fill="white"/>
</g>
</g>
</svg>
