<svg width="189" height="48" viewBox="0 0 189 48" fill="none" xmlns="http://www.w3.org/2000/svg">
<g id="Frame" clip-path="url(#clip0_434_304)">
<g id="Group">
<g id="Group_2">
<g id="Group_3">
<path id="Vector" d="M4.79521 21.8304C5.24641 17.8224 6.94081 14.1936 9.47041 11.3184V23.9376C9.47041 23.9568 9.47041 23.9808 9.47041 24C9.47041 27.9744 11.0832 31.5744 13.6896 34.1808C16.296 36.7872 19.896 38.4 23.8704 38.4C27.8448 38.4 31.4448 36.7872 34.0512 34.1808C36.6576 31.5744 38.2704 27.9744 38.2704 24C38.2704 20.0256 36.6576 16.4256 34.0512 13.8192C31.4448 11.2128 27.8448 9.59999 23.8704 9.59999C22.8672 9.59999 21.888 9.70079 20.9424 9.89759C19.8432 10.128 19.0704 11.1216 19.0704 12.2448C19.0704 13.7664 20.4624 14.8992 21.9504 14.592C22.6608 14.448 23.3952 14.3808 24.1536 14.4048C29.1024 14.5488 33.2064 18.5568 33.456 23.5008C33.7344 29.0208 29.328 33.6 23.8704 33.6C18.5808 33.6 14.2704 29.2944 14.2704 24V6.06719C14.2704 6.05759 14.2704 6.05279 14.2704 6.04319C14.2704 4.13759 12.144 2.96639 10.56 4.02239C4.80001 7.86719 0.796808 14.136 0.00960752 21.3744C-0.139192 22.7808 0.988808 24 2.40481 24C3.64321 24 4.65601 23.0592 4.79521 21.8304Z" fill="#FF3140"/>
<path id="Vector_2" d="M44.232 28.8C43.2288 28.8 42.3168 29.4144 41.9808 30.36C39.3504 37.8288 32.2272 43.2 23.8656 43.2C15.5136 43.2 8.38561 37.8336 5.76001 30.3648C5.42401 29.4192 4.51201 28.8 3.50881 28.8C1.86721 28.8 0.681613 30.4176 1.22881 31.968C4.51201 41.304 13.4112 48 23.8656 48C34.3296 48 43.224 41.304 46.5072 31.9632C47.0544 30.4176 45.8736 28.8 44.232 28.8Z" fill="#FF3140"/>
<path id="Vector_3" d="M47.7168 21.3168C46.3872 9.3216 36.216 0 23.8656 0C22.9584 0 22.0656 0.048 21.1824 0.1488C19.9728 0.2832 19.0656 1.32 19.0656 2.5344C19.0656 3.96 20.304 5.0784 21.72 4.92C22.4256 4.8432 23.1408 4.8 23.8656 4.8C33.7248 4.8 41.8704 12.264 42.9456 21.84C43.0848 23.064 44.0976 24 45.3312 24C46.7712 24 47.88 22.7472 47.7168 21.3168Z" fill="#FF3140"/>
</g>
<path id="Vector_4" d="M23.8704 28.8C26.5214 28.8 28.6704 26.651 28.6704 24C28.6704 21.349 26.5214 19.2 23.8704 19.2C21.2195 19.2 19.0704 21.349 19.0704 24C19.0704 26.651 21.2195 28.8 23.8704 28.8Z" fill="#092938"/>
</g>
<g id="Group_4">
<path id="Vector_5" d="M164.88 28.6368C164.88 29.8992 164.597 31.0128 164.035 31.9728C163.474 32.9328 162.72 33.6864 161.774 34.224C160.829 34.7616 159.768 35.0304 158.602 35.0304C157.43 35.0304 156.374 34.7616 155.429 34.224C154.483 33.6864 153.73 32.9376 153.168 31.9728C152.606 31.0128 152.323 29.8992 152.323 28.6368C152.323 27.3744 152.602 26.2656 153.168 25.3008C153.73 24.3408 154.483 23.5872 155.429 23.04C156.374 22.4928 157.43 22.2192 158.602 22.2192C159.773 22.2192 160.829 22.4928 161.774 23.04C162.72 23.5872 163.474 24.3408 164.035 25.3008C164.597 26.2656 164.88 27.3744 164.88 28.6368ZM162.11 28.6368C162.11 27.8544 161.952 27.1728 161.635 26.5968C161.318 26.0208 160.896 25.5696 160.363 25.248C159.83 24.9264 159.245 24.7632 158.597 24.7632C157.949 24.7632 157.363 24.9264 156.83 25.248C156.298 25.5696 155.875 26.0208 155.563 26.5968C155.246 27.1728 155.088 27.8544 155.088 28.6368C155.088 29.4048 155.246 30.0816 155.563 30.6576C155.88 31.2336 156.302 31.6848 156.83 32.0064C157.363 32.328 157.949 32.4912 158.597 32.4912C159.245 32.4912 159.83 32.328 160.363 32.0064C160.896 31.6848 161.318 31.2336 161.635 30.6576C161.952 30.0816 162.11 29.4096 162.11 28.6368Z" fill="#FF3140"/>
<g id="Group_5">
<path id="Vector_6" d="M70.9344 20.8464C70.2336 20.0832 69.4032 19.488 68.4432 19.056C67.4832 18.624 66.432 18.408 65.2944 18.408C64.1568 18.408 63.1104 18.624 62.1552 19.056C61.2 19.488 60.3744 20.0832 59.6736 20.8464C58.9728 21.6096 58.4304 22.488 58.0464 23.4912C57.6624 24.4896 57.4704 25.5696 57.4704 26.7216C57.4704 27.8736 57.6624 28.9536 58.0464 29.952C58.4304 30.9504 58.9728 31.8336 59.6736 32.5968C60.3744 33.36 61.2 33.9552 62.1552 34.3872C63.1104 34.8192 64.1568 35.0352 65.2944 35.0352C66.432 35.0352 67.4832 34.8192 68.4432 34.3872C69.4032 33.9552 70.2336 33.36 70.9344 32.5968C71.6352 31.8336 72.1776 30.9552 72.5616 29.952C72.9456 28.9536 73.1376 27.8736 73.1376 26.7216C73.1376 25.5696 72.9456 24.4896 72.5616 23.4912C72.1776 22.4928 71.6352 21.6096 70.9344 20.8464ZM69.5136 29.5248C69.1008 30.3648 68.5296 31.0272 67.8048 31.5216C67.08 32.016 66.2448 32.2608 65.2896 32.2608C64.3344 32.2608 63.4944 32.016 62.7744 31.5216C62.0496 31.0272 61.4832 30.3648 61.08 29.5248C60.672 28.6848 60.4704 27.7536 60.4704 26.7216C60.4704 25.6752 60.672 24.7344 61.08 23.904C61.488 23.0736 62.0544 22.4112 62.7744 21.9168C63.4992 21.4224 64.3344 21.1776 65.2896 21.1776C66.2448 21.1776 67.08 21.4224 67.8048 21.9168C68.5296 22.4112 69.096 23.0736 69.5136 23.9136C69.9312 24.7536 70.1376 25.6848 70.1376 26.7168C70.1376 27.7536 69.9312 28.6896 69.5136 29.5248Z" fill="#092938"/>
<path id="Vector_7" d="M86.2608 26.2272C86.0016 26.0784 85.7376 25.9536 85.4688 25.8432C86.0784 25.5504 86.5488 25.1568 86.8752 24.6576C87.2304 24.1104 87.408 23.4768 87.408 22.752C87.408 21.3984 87.048 20.376 86.3232 19.6848C85.5984 18.9936 84.4992 18.648 83.0208 18.648H77.2032C76.8048 18.648 76.4688 18.7824 76.2 19.0512C75.9312 19.32 75.7968 19.656 75.7968 20.0544V33.3936C75.7968 33.792 75.9312 34.128 76.2 34.3968C76.4688 34.6656 76.8048 34.8 77.2032 34.8H82.9488C83.52 34.8 84.1104 34.7328 84.7248 34.6032C85.3392 34.4736 85.9152 34.2288 86.4576 33.8784C86.9952 33.5232 87.432 33.024 87.7632 32.376C88.0944 31.728 88.2576 30.8976 88.2576 29.8848C88.2576 28.9632 88.0704 28.2048 87.6912 27.6096C87.3168 27.0192 86.8368 26.5584 86.2608 26.2272ZM83.904 21.816C84.2352 22.1136 84.3984 22.5984 84.3984 23.2608C84.3984 23.8128 84.2208 24.24 83.8656 24.528C83.5104 24.8208 83.112 24.9648 82.6656 24.9648H78.7872V21.3648H82.5936C83.1408 21.3696 83.5776 21.5184 83.904 21.816ZM84.6336 31.5792C84.216 31.9584 83.6544 32.1456 82.9488 32.1456H78.792V27.6912H82.7856C83.1072 27.6912 83.4624 27.7296 83.8464 27.8064C84.2304 27.8832 84.5616 28.0752 84.84 28.3824C85.1184 28.6896 85.2576 29.1888 85.2576 29.8848C85.2576 30.6384 85.0512 31.2048 84.6336 31.5792Z" fill="#092938"/>
<path id="Vector_8" d="M107.146 18.6432C106.762 18.6432 106.454 18.768 106.224 19.0128C105.994 19.2576 105.878 19.5648 105.878 19.9344V29.8656L97.4784 19.1472C97.3728 18.9792 97.2 18.8496 96.9696 18.768C96.7392 18.6816 96.5136 18.6432 96.3024 18.6432C95.904 18.6432 95.568 18.7776 95.2992 19.0464C95.0304 19.3152 94.896 19.6512 94.896 20.0496V33.504C94.896 33.8736 95.0112 34.1808 95.2416 34.4256C95.472 34.6704 95.7744 34.7952 96.144 34.7952C96.528 34.7952 96.84 34.6704 97.08 34.4256C97.32 34.1808 97.44 33.8736 97.44 33.504V23.6544L105.912 34.4112C106.018 34.536 106.176 34.632 106.387 34.6992C106.594 34.7664 106.8 34.8048 106.997 34.8048C107.395 34.8048 107.731 34.6704 108 34.4016C108.269 34.1328 108.403 33.7968 108.403 33.3984V19.9344C108.403 19.5648 108.288 19.2576 108.058 19.0128C107.813 18.768 107.515 18.6432 107.146 18.6432Z" fill="#092938"/>
<path id="Vector_9" d="M120.634 24.0336C120.096 23.472 119.477 23.0304 118.776 22.7088C118.075 22.3872 117.331 22.224 116.549 22.224C115.531 22.224 114.571 22.4832 113.664 23.0064C112.757 23.5296 112.022 24.2784 111.461 25.2576C110.899 26.2368 110.616 27.4176 110.616 28.8C110.616 29.9856 110.875 31.0464 111.389 31.9872C111.902 32.928 112.642 33.6672 113.606 34.2144C114.566 34.7616 115.704 35.0352 117.01 35.0352C117.778 35.0352 118.526 34.9104 119.246 34.656C119.971 34.4016 120.533 34.104 120.931 33.768C121.363 33.432 121.579 33.0528 121.579 32.6352C121.579 32.328 121.469 32.0592 121.243 31.8288C121.018 31.5984 120.739 31.4832 120.398 31.4832C120.154 31.4832 119.89 31.5504 119.616 31.6896C119.448 31.7808 119.256 31.896 119.05 32.0256C118.843 32.1552 118.57 32.2656 118.229 32.3616C117.888 32.4528 117.437 32.5008 116.866 32.5008C116.251 32.5008 115.67 32.352 115.123 32.0496C114.576 31.752 114.13 31.3104 113.784 30.7344C113.582 30.3984 113.448 30.0144 113.362 29.592H120.974C121.344 29.592 121.666 29.4768 121.944 29.2464C122.222 29.016 122.366 28.7136 122.381 28.344C122.381 27.5136 122.222 26.7264 121.906 25.9872C121.598 25.2432 121.171 24.5952 120.634 24.0336ZM114.216 25.5696C114.509 25.2768 114.854 25.0704 115.253 24.9456C115.651 24.8208 116.083 24.7584 116.544 24.7584C117.019 24.7584 117.47 24.864 117.893 25.0704C118.315 25.2768 118.67 25.56 118.954 25.9104C119.237 26.2656 119.395 26.664 119.429 27.1104V27.2736H113.386C113.424 27.0864 113.467 26.904 113.52 26.7408C113.693 26.2512 113.923 25.8624 114.216 25.5696Z" fill="#092938"/>
<path id="Vector_10" d="M130.421 25.224C130.79 25.224 131.098 25.104 131.342 24.864C131.587 24.624 131.712 24.3312 131.712 23.976C131.712 23.6064 131.587 23.2992 131.342 23.0544C131.098 22.8096 130.79 22.6848 130.421 22.6848H128.784V21.2064C128.784 20.808 128.659 20.472 128.405 20.2032C128.15 19.9344 127.824 19.8 127.426 19.8C127.027 19.8 126.691 19.9344 126.422 20.2032C126.154 20.472 126.019 20.808 126.019 21.2064V22.6848H124.958C124.589 22.6848 124.282 22.8048 124.037 23.0448C123.792 23.2848 123.667 23.5776 123.667 23.9328C123.667 24.3024 123.792 24.6096 124.037 24.8544C124.282 25.0992 124.589 25.224 124.958 25.224H126.019V31.5936C126.019 32.3472 126.134 32.9424 126.365 33.3696C126.595 33.8016 126.883 34.1184 127.229 34.3296C127.574 34.536 127.944 34.6656 128.338 34.7232C128.731 34.776 129.086 34.8048 129.413 34.8048C129.95 34.8048 130.454 34.6656 130.925 34.3872C131.395 34.1088 131.63 33.7584 131.63 33.3264C131.63 32.9712 131.544 32.6976 131.366 32.496C131.189 32.2944 130.992 32.1984 130.776 32.1984C130.574 32.1984 130.397 32.232 130.243 32.304C130.09 32.3712 129.922 32.4096 129.734 32.4096C129.566 32.4096 129.408 32.3808 129.259 32.3184C129.115 32.256 128.995 32.1552 128.914 32.016C128.827 31.8768 128.789 31.6992 128.789 31.4832V25.224H130.421Z" fill="#092938"/>
<path id="Vector_11" d="M149.39 22.4544C148.685 22.4544 148.238 22.7472 148.051 23.3328L145.579 29.9712L143.808 25.152C143.702 24.8736 143.558 24.6624 143.381 24.5184C143.203 24.3744 142.944 24.2976 142.608 24.2976C142.008 24.2976 141.586 24.5808 141.341 25.152L139.522 30.0912L137.026 23.328C136.934 23.0208 136.771 22.7952 136.541 22.656C136.31 22.5168 136.046 22.4496 135.754 22.4496C135.322 22.4496 134.986 22.5984 134.736 22.8864C134.491 23.1792 134.366 23.5104 134.366 23.88C134.366 24.0624 134.395 24.24 134.458 24.4128L137.99 33.9216C138.096 34.2288 138.293 34.464 138.581 34.6272C138.864 34.7904 139.152 34.848 139.445 34.8C139.968 34.7712 140.362 34.4784 140.621 33.9216L142.478 28.2432L144.451 33.9216C144.71 34.4736 145.104 34.7664 145.627 34.8C145.934 34.848 146.227 34.7904 146.506 34.6272C146.784 34.464 146.976 34.2336 147.082 33.9216L150.614 24.4128C150.643 24.336 150.667 24.2544 150.682 24.168C150.696 24.0816 150.706 23.9856 150.706 23.88C150.706 23.4624 150.576 23.1216 150.312 22.8528C150.053 22.5888 149.746 22.4544 149.39 22.4544Z" fill="#092938"/>
<path id="Vector_12" d="M174.883 22.6128C174.566 22.3536 174.178 22.2192 173.717 22.2192C173.333 22.2192 172.949 22.2672 172.565 22.3584C172.181 22.4496 171.816 22.5936 171.48 22.7856C171.139 22.9776 170.837 23.2176 170.568 23.5008C170.371 23.7072 170.213 23.9424 170.074 24.192V23.8608C170.074 23.4624 169.944 23.1264 169.68 22.8576C169.421 22.5888 169.09 22.4544 168.686 22.4544C168.288 22.4544 167.957 22.5888 167.693 22.8576C167.429 23.1264 167.299 23.4624 167.299 23.8608V33.3936C167.299 33.792 167.429 34.128 167.693 34.3968C167.952 34.6656 168.283 34.8 168.686 34.8C169.085 34.8 169.416 34.6656 169.68 34.3968C169.944 34.128 170.074 33.792 170.074 33.3936V27.9216C170.074 27.3696 170.146 26.8848 170.294 26.4768C170.438 26.0688 170.63 25.728 170.87 25.4496C171.11 25.1712 171.37 24.9696 171.658 24.84C171.941 24.7104 172.224 24.6432 172.502 24.6432C172.81 24.6432 173.083 24.696 173.323 24.8064C173.563 24.912 173.827 24.9696 174.12 24.9696C174.427 24.9696 174.71 24.8592 174.974 24.6336C175.234 24.4128 175.368 24.0432 175.368 23.5392C175.358 23.184 175.2 22.8768 174.883 22.6128Z" fill="#092938"/>
<path id="Vector_13" d="M187.589 32.376L183.557 27.984L187.037 24.7824C187.406 24.4608 187.589 24.1152 187.589 23.7456C187.589 23.4672 187.459 23.184 187.195 22.8912C186.931 22.5984 186.624 22.4544 186.274 22.4544C185.89 22.4544 185.549 22.6032 185.256 22.8912L180.317 27.6576V19.128C180.317 18.7296 180.187 18.3936 179.923 18.1248C179.659 17.856 179.333 17.7216 178.93 17.7216C178.531 17.7216 178.2 17.856 177.936 18.1248C177.677 18.3936 177.542 18.7296 177.542 19.128V33.3936C177.542 33.792 177.672 34.128 177.936 34.3968C178.2 34.6656 178.526 34.8 178.93 34.8C179.328 34.8 179.659 34.6656 179.923 34.3968C180.182 34.128 180.317 33.792 180.317 33.3936V30.9648L181.454 29.9184L185.606 34.3152C185.885 34.6224 186.221 34.776 186.624 34.776C186.931 34.776 187.243 34.6464 187.56 34.3968C187.877 34.1424 188.035 33.816 188.035 33.4176C188.03 33.0336 187.882 32.6832 187.589 32.376Z" fill="#092938"/>
</g>
</g>
</g>
</g>
<defs>
<clipPath id="clip0_434_304">
<rect width="188.03" height="48" fill="white"/>
</clipPath>
</defs>
</svg>
